<?xml version="1.0" standalone="no"?>
<!DOCTYPE svg PUBLIC "-//W3C//DTD SVG 20010904//EN"
 "http://www.w3.org/TR/2001/REC-SVG-20010904/DTD/svg10.dtd">
<svg version="1.0" xmlns="http://www.w3.org/2000/svg"
 width="1300.000000pt" height="568.000000pt" viewBox="0 0 1300.000000 568.000000"
 preserveAspectRatio="xMidYMid meet">

<g transform="translate(0.000000,568.000000) scale(0.100000,-0.100000)"
fill="#000000" stroke="none">
<path d="M6750 4894 c-216 -58 -423 -320 -535 -676 -20 -65 -55 -211 -78 -325
l-42 -207 -85 -27 c-47 -14 -123 -31 -170 -38 -47 -7 -102 -15 -123 -19 l-38
-7 48 -46 48 -46 80 14 c44 7 111 23 148 34 38 11 70 19 71 17 2 -2 -3 -61
-10 -133 -7 -71 -16 -169 -19 -216 l-7 -87 -45 14 c-126 38 -278 -6 -396 -115
-70 -66 -97 -105 -136 -204 -53 -133 -76 -271 -75 -452 0 -146 3 -167 28 -243
l27 -83 -42 -77 c-60 -109 -116 -197 -168 -267 -68 -89 -79 -101 -92 -88 -29
29 -15 559 26 1003 8 85 15 232 15 325 0 158 -2 174 -22 215 -27 54 -56 70
-123 70 -63 0 -115 -24 -187 -86 -124 -107 -235 -284 -295 -474 -15 -50 -30
-90 -33 -90 -3 0 -13 12 -24 28 -10 15 -37 42 -59 60 -35 29 -46 33 -76 27
-50 -9 -86 -30 -109 -62 -30 -44 -96 -244 -161 -486 -115 -428 -122 -442 -157
-307 -13 53 -18 139 -23 465 -6 343 -9 405 -23 437 -23 51 -56 65 -105 47 -49
-19 -75 -59 -114 -177 -33 -100 -83 -208 -150 -324 -21 -36 -39 -70 -39 -75 0
-4 91 -100 203 -213 l202 -205 -207 205 c-114 112 -209 202 -211 200 -1 -3
-26 -41 -55 -85 -28 -45 -68 -96 -88 -115 -34 -33 -36 -34 -49 -16 -27 36 -40
129 -39 281 0 134 4 163 32 272 45 176 82 243 133 243 33 0 92 -48 116 -94 9
-17 24 -76 33 -131 12 -73 21 -101 32 -103 34 -7 68 145 54 241 -8 55 -53 124
-102 157 -33 22 -48 25 -123 25 -72 0 -95 -4 -144 -27 -95 -45 -189 -147 -256
-280 -17 -34 -25 -34 -76 -7 -65 35 -111 76 -201 180 l-85 98 15 78 15 78 -62
65 -62 65 61 -59 62 -58 6 28 c32 158 103 660 117 829 31 380 -39 675 -207
879 -93 112 -168 153 -265 144 -130 -13 -241 -122 -294 -291 -54 -170 -72
-528 -40 -787 l17 -135 175 -175 c96 -96 170 -164 163 -151 -30 58 -94 248
-124 366 -56 215 -69 344 -63 589 6 231 21 327 63 414 48 98 96 95 199 -11 85
-88 125 -154 171 -283 54 -150 67 -260 61 -509 -3 -115 -12 -252 -21 -303 -29
-184 -109 -572 -116 -572 -10 0 -44 57 -103 175 -42 83 -60 104 -221 265 -97
96 -176 173 -176 170 0 -3 13 -55 29 -116 70 -265 191 -520 348 -730 29 -39
53 -77 53 -84 0 -7 -14 -72 -31 -144 -17 -72 -32 -140 -34 -151 -1 -11 -5 -27
-9 -35 -6 -16 -71 -294 -156 -674 -29 -126 -57 -239 -62 -252 -24 -53 -44 -20
-62 102 -9 54 -29 185 -46 289 -30 189 -47 297 -95 620 -61 414 -80 453 -210
443 -46 -4 -79 -14 -117 -35 -82 -47 -92 -67 -96 -184 -2 -55 1 -128 7 -162
11 -61 10 -65 -40 -212 -73 -220 -120 -391 -179 -655 -58 -262 -111 -439 -140
-465 -23 -20 -56 -7 -70 29 -13 36 -68 319 -84 437 -51 368 -42 579 54 1297
51 378 55 433 40 507 -28 134 -169 203 -328 161 -101 -27 -178 -85 -286 -215
-178 -214 -278 -397 -321 -585 -21 -90 -17 -100 41 -93 55 6 73 21 114 100 51
96 177 305 228 376 68 97 161 201 178 201 22 0 14 -65 -52 -455 -104 -622
-119 -760 -111 -1097 6 -303 26 -421 103 -628 76 -204 212 -402 308 -446 28
-13 64 -24 79 -24 80 0 183 102 257 255 73 149 117 314 252 955 l11 55 17 -95
c32 -185 101 -502 135 -623 73 -266 128 -372 217 -427 62 -38 144 -15 210 58
102 114 165 330 319 1097 55 275 101 504 103 509 1 6 12 0 24 -12 86 -86 200
-142 290 -142 41 0 44 -2 38 -22 -14 -52 -18 -219 -7 -304 20 -162 69 -262
148 -299 60 -29 192 -17 274 25 90 45 164 105 210 168 23 34 40 49 43 41 2 -8
7 -62 10 -120 8 -147 35 -231 92 -286 90 -87 220 -85 316 5 81 76 118 165 197
479 l68 272 31 -142 c59 -267 64 -276 149 -257 59 14 162 75 172 104 5 11 4
80 -2 152 -9 124 -8 137 18 260 37 177 78 303 133 407 69 131 172 251 201 233
20 -13 11 -79 -34 -259 -46 -186 -106 -542 -126 -757 -15 -167 -16 -450 0
-522 21 -99 101 -177 181 -178 51 0 127 27 167 59 59 48 290 404 318 490 8 26
8 26 73 1 70 -27 80 -26 122 13 34 32 35 32 7 1 -15 -16 -27 -32 -27 -35 0 -3
27 -2 61 2 130 15 254 110 329 251 l33 61 27 -79 c34 -102 50 -131 97 -176 58
-56 124 -82 213 -82 94 -1 142 13 220 65 33 23 62 40 64 38 2 -2 11 -20 20
-39 46 -99 182 -224 280 -256 75 -25 185 -15 262 24 82 41 172 139 220 239 21
43 53 96 70 118 17 22 62 86 98 142 l67 102 35 -24 c19 -13 51 -29 69 -35 19
-6 35 -18 35 -25 0 -7 -11 -60 -24 -117 -63 -267 -81 -474 -50 -577 30 -103
137 -181 248 -181 66 0 174 37 239 83 59 41 131 128 170 202 l20 40 13 -90
c23 -157 63 -305 109 -400 78 -161 155 -224 262 -211 181 21 262 125 387 497
36 105 68 194 71 197 3 3 5 -4 5 -15 0 -27 45 -111 78 -146 57 -61 147 -87
229 -68 106 26 174 105 302 350 l68 132 6 -193 c7 -224 16 -277 60 -343 95
-143 257 -162 375 -44 81 82 195 310 289 584 31 89 76 183 151 313 24 42 25
43 45 25 11 -10 44 -47 73 -82 l53 -64 -39 -30 c-22 -16 -40 -32 -40 -36 0 -4
16 -22 35 -41 34 -33 36 -34 49 -15 47 65 42 65 65 12 12 -27 21 -67 21 -90 0
-31 7 -49 28 -71 25 -29 25 -29 1 -8 -31 27 -39 28 -39 2 0 -32 -37 -98 -59
-105 -22 -7 -59 9 -78 34 -21 27 -15 89 14 147 l27 55 -37 36 -36 37 -20 -25
c-11 -13 -39 -60 -63 -104 -35 -67 -42 -90 -42 -140 -1 -101 52 -155 154 -155
70 0 125 26 191 87 102 96 141 196 143 369 l2 121 55 64 c81 93 169 206 209
269 l35 55 2 -120 c10 -523 75 -873 182 -988 62 -67 163 -81 243 -34 87 50
170 151 220 265 66 152 169 507 234 807 27 128 44 345 27 345 -6 0 -27 -7 -47
-15 -46 -20 -55 -40 -101 -235 -37 -158 -126 -477 -189 -676 -97 -309 -175
-433 -206 -326 -28 96 -41 274 -56 742 -10 326 -13 597 -9 795 l7 300 141 -3
c198 -5 339 26 502 111 122 65 292 237 232 237 -7 0 -46 -21 -87 -47 -232
-144 -475 -183 -711 -113 l-71 21 6 122 c18 335 28 487 41 642 8 93 15 202 15
242 0 63 -3 75 -25 97 -13 13 -37 27 -54 31 -35 7 -104 -9 -146 -35 -57 -35
-54 -22 -90 -440 -8 -96 -19 -254 -25 -350 -6 -96 -12 -175 -13 -177 -2 -1
-34 9 -72 23 -134 49 -254 67 -445 68 -145 0 -193 -4 -280 -23 -164 -35 -317
-97 -425 -172 -43 -29 -114 -99 -101 -99 5 0 47 22 95 49 108 61 205 103 301
132 64 19 100 23 251 24 96 1 182 5 190 10 11 7 12 6 2 -6 -10 -12 -1 -18 60
-37 40 -12 148 -62 242 -111 l170 -89 -4 -408 -3 -407 -56 -86 c-115 -178
-148 -228 -206 -309 -33 -45 -62 -82 -66 -82 -3 0 -14 16 -25 36 -11 20 -72
85 -136 146 l-118 109 21 47 c37 87 117 332 133 407 19 96 19 246 0 313 -19
65 -52 92 -111 92 -130 0 -329 -138 -423 -294 -58 -96 -81 -175 -81 -275 0
-162 53 -276 191 -414 l89 -88 -24 -57 -24 -57 21 -25 22 -25 -23 19 c-12 11
-24 17 -26 15 -2 -2 -24 -52 -48 -110 -109 -266 -319 -629 -364 -629 -9 0 -25
22 -39 53 -35 76 -49 294 -35 544 15 281 14 379 -6 387 -26 10 -94 7 -136 -6
-69 -20 -93 -52 -116 -153 -11 -50 -23 -115 -27 -145 -4 -35 -18 -73 -37 -105
-17 -27 -64 -108 -105 -179 -105 -182 -198 -306 -230 -306 -8 0 -21 17 -30 37
-12 30 -15 73 -14 198 1 150 15 379 27 435 4 18 -44 -24 -170 -150 -125 -124
-177 -183 -182 -205 -32 -146 -246 -674 -295 -726 -18 -20 -32 -26 -48 -22
-26 7 -43 61 -102 318 -54 239 -68 351 -75 590 l-6 200 86 228 c140 371 215
599 332 1007 85 298 83 284 48 323 l-29 32 31 -28 32 -29 17 74 c61 269 80
420 72 588 -6 130 -19 173 -66 213 -28 23 -42 27 -93 27 -174 0 -336 -197
-449 -546 -131 -407 -269 -1464 -269 -2060 l0 -231 -57 -91 c-67 -106 -143
-196 -187 -223 -71 -43 -132 -7 -162 97 -15 52 -15 72 -5 169 16 145 46 325
77 458 14 59 23 114 21 122 -7 16 -68 35 -118 35 -28 0 -44 9 -78 42 -24 24
-51 59 -62 80 l-18 36 58 124 c116 243 188 479 217 715 24 191 8 290 -62 373
-60 71 -127 61 -221 -35 -138 -141 -246 -353 -299 -591 -25 -112 -30 -330 -9
-459 17 -111 51 -217 87 -268 l20 -28 -57 -102 c-163 -292 -290 -463 -378
-508 -87 -45 -169 32 -208 197 -19 81 -48 273 -49 320 0 17 9 24 47 34 139 35
308 164 366 282 34 68 53 166 43 229 -9 61 -55 130 -102 152 -110 53 -326 -4
-454 -119 -136 -123 -190 -286 -190 -572 0 -147 -1 -155 -26 -198 -48 -81 -97
-103 -147 -64 -47 37 -135 296 -152 450 -10 80 -12 85 -33 69 -16 -13 -16 -12
0 6 14 18 15 40 10 185 -12 302 15 906 41 923 7 4 55 33 107 64 324 192 517
434 576 723 19 98 15 225 -11 286 -46 112 -162 156 -305 118z m90 -132 c41
-41 53 -99 47 -217 -11 -199 -104 -386 -270 -541 -81 -76 -223 -179 -230 -167
-13 26 68 486 106 598 68 199 196 353 295 355 13 0 36 -13 52 -28z m2342 -189
c58 -67 61 -284 7 -582 -14 -79 -15 -108 -7 -119 9 -10 8 -12 -2 -10 -9 2 -20
-25 -36 -89 -39 -160 -125 -472 -189 -690 -41 -136 -156 -477 -164 -485 -9
-10 9 186 64 692 85 784 109 924 196 1144 56 142 94 182 131 139z m2068 -676
c0 -2 -12 -14 -27 -28 l-28 -24 24 28 c23 25 31 32 31 24z m-3234 -345 c23
-155 -49 -500 -159 -756 -20 -46 -21 -47 -30 -25 -16 39 -21 309 -7 400 20
140 99 379 142 435 20 25 22 25 34 9 7 -10 16 -38 20 -63z m3051 -219 c28 -42
25 -250 -5 -361 -31 -113 -91 -295 -101 -305 -10 -10 -75 123 -90 187 -18 72
-16 205 4 273 31 107 115 233 157 233 10 0 26 -12 35 -27z m-4872 -253 c71
-71 127 -130 125 -130 -3 0 -64 59 -135 130 -71 72 -127 130 -125 130 3 0 64
-58 135 -130z m-199 -9 l41 -19 7 -248 c3 -137 11 -274 16 -304 9 -54 9 -56
-46 -165 -42 -83 -50 -105 -33 -90 13 11 -5 -12 -40 -52 -35 -39 -89 -93 -120
-119 -31 -27 -47 -38 -36 -25 18 21 19 23 2 32 -22 13 -70 107 -93 185 -34
110 -16 462 31 622 22 74 82 158 130 182 50 25 88 25 141 1z m1223 -196 c65
-33 80 -141 33 -240 -38 -79 -128 -163 -207 -193 -32 -12 -59 -21 -61 -19 -9
9 18 223 35 276 35 113 96 191 148 191 13 0 37 -7 52 -15z m-4499 -138 c0 -2
-17 -19 -37 -38 l-38 -34 34 38 c33 34 41 42 41 34z m-110 -110 c0 -2 -10 -12
-22 -23 l-23 -19 19 23 c18 21 26 27 26 19z m540 -92 c52 -52 92 -95 90 -95
-3 0 -48 43 -100 95 -52 52 -92 95 -90 95 3 0 48 -43 100 -95z m-610 22 c0 -2
-12 -14 -27 -28 l-28 -24 24 28 c23 25 31 32 31 24z m3760 0 c0 -2 -12 -14
-27 -28 l-28 -24 24 28 c23 25 31 32 31 24z m550 -132 c69 -69 122 -125 120
-125 -3 0 -61 56 -130 125 -69 69 -122 125 -120 125 3 0 61 -56 130 -125z
m-630 52 c0 -2 -12 -14 -27 -28 l-28 -24 24 28 c23 25 31 32 31 24z m-3770
-10 c0 -2 -10 -12 -22 -23 l-23 -19 19 23 c18 21 26 27 26 19z m3690 -70 c0
-2 -12 -14 -27 -28 l-28 -24 24 28 c23 25 31 32 31 24z m-60 -60 c0 -2 -17
-19 -37 -38 l-38 -34 34 38 c33 34 41 42 41 34z m-4100 -340 c0 -2 -12 -14
-27 -28 l-28 -24 24 28 c23 25 31 32 31 24z m-80 -80 c0 -2 -12 -14 -27 -28
l-28 -24 24 28 c23 25 31 32 31 24z m5500 -42 c13 -14 21 -25 18 -25 -2 0 -15
11 -28 25 -13 14 -21 25 -18 25 2 0 15 -11 28 -25z m-5580 -38 c0 -2 -12 -14
-27 -28 l-28 -24 24 28 c23 25 31 32 31 24z m-80 -80 c0 -2 -10 -12 -22 -23
l-23 -19 19 23 c18 21 26 27 26 19z"/>
<path d="M5045 4308 c-92 -107 -125 -247 -90 -383 25 -96 54 -145 135 -226
116 -117 250 -176 453 -199 49 -6 118 -7 154 -4 l65 7 -49 48 c-48 47 -48 47
-155 63 -279 40 -468 199 -509 428 -17 96 0 183 59 301 2 4 -3 7 -11 7 -9 0
-32 -19 -52 -42z"/>
<path d="M9530 2740 c-78 -27 -104 -60 -129 -166 -27 -119 -58 -314 -71 -451
-6 -62 -15 -125 -21 -140 -6 -18 48 30 159 140 l169 168 33 187 c49 280 48
250 6 267 -46 20 -79 19 -146 -5z"/>
</g>
</svg>
